<?xml version="1.0" encoding="UTF-8" standalone="no"?>
<!-- Created with Inkscape (http://www.inkscape.org/) -->

<svg
   version="1.1"
   id="svg1"
   width="209.99464"
   height="226.76186"
   viewBox="0 0 209.99465 226.76186"
   sodipodi:docname="stock_master_isotipo.svg"
   inkscape:version="1.4.4 (dcaf3e7, 2026-05-05)"
   xmlns:inkscape="http://www.inkscape.org/namespaces/inkscape"
   xmlns:sodipodi="http://sodipodi.sourceforge.net/DTD/sodipodi-0.dtd"
   xmlns="http://www.w3.org/2000/svg"
   xmlns:svg="http://www.w3.org/2000/svg">
  <defs
     id="defs1" />
  <sodipodi:namedview
     id="namedview1"
     pagecolor="#ffffff"
     bordercolor="#000000"
     borderopacity="0.25"
     inkscape:showpageshadow="2"
     inkscape:pageopacity="0.0"
     inkscape:pagecheckerboard="0"
     inkscape:deskcolor="#d1d1d1"
     inkscape:zoom="0.80842178"
     inkscape:cx="-128.64572"
     inkscape:cy="364.29004"
     inkscape:window-width="1920"
     inkscape:window-height="1051"
     inkscape:window-x="-9"
     inkscape:window-y="-9"
     inkscape:window-maximized="1"
     inkscape:current-layer="g1">
    <inkscape:page
       x="0"
       y="0"
       inkscape:label="1"
       id="page1"
       width="209.99464"
       height="226.76186"
       margin="0"
       bleed="0" />
  </sodipodi:namedview>
  <g
     id="g1"
     inkscape:groupmode="layer"
     inkscape:label="1"
     transform="translate(-1032.2049,-159.30938)">
    <path
       id="path3"
       d="m 1134.5246,238.5174 c 0.1101,-1.20907 0.2047,-1.75386 0.2003,-2.29863 -0.018,-2.62169 -0.063,-5.24338 -0.098,-7.86508 -1.9998,-1.86557 -4.6582,-2.66673 -7.0232,-3.92603 -10.203,-5.42959 -20.4618,-10.76306 -30.7053,-16.12336 -0.5123,-0.26848 -1.0364,-0.49455 -1.3476,-1.28963 14.4651,-7.18084 28.9787,-14.38595 43.7693,-21.72875 1.4207,0.70414 3.0615,1.50616 4.6915,2.32721 10.3291,5.20528 20.6566,10.41488 30.9839,15.62535 1.0193,0.51447 1.9989,1.11294 3.0507,1.55379 1.3584,0.5699 2.0728,1.43425 1.8671,2.89797 -0.038,0.27196 0,0.55257 0,0.82972 0.041,8.85762 0.047,17.71525 0.1562,26.57201 0.021,1.69669 -0.4899,2.8616 -1.9909,3.80306 -1.9276,1.2082 -3.7217,2.61129 -5.5835,3.91736 -0.341,0.23905 -0.7064,0.53006 -1.3134,0.0961 -0.4782,-0.58028 -0.1642,-1.42647 -0.1661,-2.21028 -0.011,-5.6747 0.022,-11.34855 0.037,-17.02324 0.01,-2.07605 -0.023,-4.15208 7e-4,-6.22814 0.033,-2.88931 -0.038,-3.51377 -3.3447,-1.70534 -0.3754,0.20526 -0.7587,0.39754 -1.1394,0.59327 -6.8572,3.52071 -13.6981,7.07258 -20.587,10.5344 -1.4378,0.72232 -2.0738,1.58583 -2.0675,3.18379 0.032,7.88845 -0.059,15.77691 -0.082,23.66536 -0.016,5.35338 0.1895,4.97315 -4.5507,2.31162 -14.0519,-7.88932 -28.1146,-15.76045 -42.1836,-23.62032 -2.6068,-1.45678 -5.1723,-2.98373 -8.2058,-3.59865 -7.0286,-1.42474 -13.3916,2.41296 -15.1,9.13477 -0.3807,1.4975 -0.5114,2.99672 -0.5124,4.52279 0,4.42925 0.067,8.85936 -0.034,13.28598 -0.139,6.05752 2.4787,10.76132 7.6311,14.05511 4.5517,2.91096 9.3017,5.53958 13.996,8.24355 11.1184,6.40569 22.2568,12.78021 33.3841,19.1703 4.1115,2.361 7.8441,5.14725 10.9192,8.71645 4.2936,4.98355 6.63,10.64871 6.5893,17.14275 -0.024,3.8654 0.2129,7.72909 -0.6594,11.57545 -2.5563,11.27404 -11.915,18.24529 -24.0689,18.00886 -4.9954,-0.097 -9.5489,-1.86473 -13.8543,-4.25084 -8.9815,-4.97922 -17.9839,-9.92293 -26.9816,-14.87615 -2.1243,-1.16925 -4.2891,-2.2718 -6.3873,-3.48347 -1.7264,-0.99688 -3.4547,-2.01541 -5.0513,-3.18898 -5.7001,-4.19107 -8.9924,-9.70034 -9.1639,-16.64994 -0.1569,-6.35372 -0.033,-12.7135 -0.033,-18.87756 0.9535,-0.78987 1.5804,-0.28235 2.1677,0.0295 3.4051,1.80322 6.7707,3.67574 10.1965,5.43999 1.0472,0.53957 1.4207,1.26018 1.4072,2.32288 -0.035,2.76806 0.093,5.54391 -0.086,8.30244 -0.3139,4.82506 1.8897,8.25569 6.068,10.6522 3.462,1.98597 6.9718,3.89399 10.4699,5.82107 7.7466,4.26642 15.4879,8.54149 23.257,12.7698 1.6219,0.88342 3.2907,1.75992 5.0461,2.33328 6.4576,2.10895 12.5093,-1.26884 13.5783,-7.71004 0.589,-3.54842 0.5231,-7.17912 -0.1154,-10.74919 -0.6919,-3.86628 -2.8154,-6.9392 -6.0564,-9.26122 -1.8437,-1.32081 -3.7957,-2.51516 -5.7684,-3.65582 -13.8219,-7.99152 -27.669,-15.94319 -41.4882,-23.93904 -2.2189,-1.28357 -4.4145,-2.6295 -6.4884,-4.11659 -6.9446,-4.97922 -11.0156,-11.59364 -11.8246,-19.92121 -0.7253,-7.46232 -0.7036,-14.95411 0.2363,-22.37833 1.5859,-12.52036 12.3281,-21.42735 25.4807,-21.60924 5.0332,-0.0693 9.7248,0.93712 14.0798,3.35009 7.7358,4.28547 15.4699,8.57267 23.1894,12.88412 3.7064,2.07259 7.3778,4.2006 11.611,6.61269 z"
       style="fill:#202329;fill-opacity:1;fill-rule:evenodd;stroke:none;stroke-width:0.883878" />
    <path
       id="path4"
       d="m 1205.3531,327.07629 c -0.067,-1.37709 -0.1903,-2.75333 -0.1929,-4.13043 -0.054,-25.17932 -0.085,-50.35863 -0.1571,-75.5388 -0.01,-1.33293 0.4375,-2.7516 -0.4474,-4.05162 -1.4405,0.46943 -2.458,1.46891 -3.5757,2.30209 -18.1011,13.4904 -36.1786,27.01025 -54.2923,40.4842 -4.7763,3.55274 -3.1726,3.43323 -8.4277,0.46769 -11.0491,-6.23506 -22.0782,-12.50218 -33.1173,-18.75283 -0.7224,-0.4088 -1.4568,-0.79768 -2.4788,-1.35545 -0.6792,2.99758 -0.032,5.73792 -0.4835,8.24702 -0.8181,0.37936 -1.3486,0.10047 -1.8329,-0.17408 -3.4728,-1.96519 -6.9357,-3.94597 -10.3932,-5.9354 -0.7477,-0.43044 -1.3829,-0.92239 -1.3755,-1.91581 0.053,-7.32636 0.076,-14.65272 0.1172,-21.97907 6e-4,-0.1048 0.1281,-0.20874 0.23,-0.36549 1.6327,0.0858 2.8883,1.06531 4.2251,1.81102 15.1884,8.4774 30.3596,16.98164 45.5427,25.46771 3.3177,1.85433 2.5375,2.15227 5.92,-0.37675 20.1272,-15.04764 40.2524,-30.09703 60.3812,-45.14121 4.7221,-3.52936 4.7294,-3.52678 10.6341,-3.06515 0.8524,0.0667 1.6985,0.21307 2.4823,0.31353 0.6848,1.12075 0.4466,2.25361 0.4483,3.34142 0.031,30.7137 0.047,61.42739 0.064,92.14109 0,0.2763 -0.043,0.56038 0.01,0.82887 0.3257,1.79456 -0.5944,2.7724 -2.191,3.56748 -3.0598,1.52346 -6.031,3.20977 -9.0392,4.82938 -0.7831,-0.15418 -1.4009,-0.61234 -2.0468,-1.01941 z"
       style="fill:#202329;fill-opacity:1;fill-rule:evenodd;stroke:none;stroke-width:0.883878" />
    <path
       id="path9"
       d="m 1176.9228,344.65555 c 0,-5.16629 0.01,-9.58514 0,-14.00485 -0.012,-9.67696 -0.027,-19.35391 -0.045,-29.03087 0,-0.96743 -0.012,-1.93487 -0.054,-2.90144 -0.023,-0.51793 -0.8173,-0.8124 -1.2989,-0.45903 -2.744,2.01715 -5.4718,4.05421 -8.2058,6.0835 -4.4425,3.29811 -8.8823,6.60143 -13.333,9.88914 -0.7911,0.58376 -1.6317,1.10515 -2.6447,1.78678 -1.3765,-3.77794 -2.7395,-7.38871 -4.6239,-10.78644 -0.386,-0.69634 -0.174,-1.33813 0.4322,-1.84566 0.5429,-0.45385 1.0977,-0.89555 1.6642,-1.32167 12.5798,-9.47083 25.1603,-18.93991 37.7455,-28.40294 0.9048,-0.6799 1.8366,-1.3286 2.7801,-1.95912 0.4726,-0.31526 1.1835,0.0753 1.2006,0.64784 0.028,0.96657 0.026,1.93488 0.026,2.90144 0,17.55675 0,35.11437 0.01,52.6711 0,2.48831 0.01,4.97663 0.037,7.46494 0.012,1.01767 -0.1651,1.93661 -1.1817,2.47618 -3.9986,2.12282 -7.8738,4.46302 -12.5022,6.7911 z"
       style="fill:#303135;fill-opacity:1;fill-rule:evenodd;stroke:none;stroke-width:0.883878" />
    <path
       id="path65"
       d="m 1102.3464,323.88644 c -4.9287,-2.28564 -8.8796,-4.7471 -12.9405,-7.01455 -0.7064,-0.39408 -0.8092,-1.0965 -0.8101,-1.79889 -0.01,-6.05666 -0.01,-12.1133 -0.01,-18.03051 0.9139,-0.75525 1.5083,-0.14551 2.0513,0.16282 3.4575,1.96086 6.8835,3.97281 10.3229,5.96398 0.9182,0.53179 1.4144,1.20301 1.4053,2.32894 -0.052,5.90856 -0.025,11.81709 -0.025,18.38821 z"
       style="fill:#303135;fill-opacity:1;fill-rule:evenodd;stroke:none;stroke-width:0.883878" />
    <path
       id="path96"
       d="m 1205.3531,327.07629 c 0.8462,0.0364 1.622,0.20354 2.0477,1.01767 -0.1615,0.47722 -0.5358,0.65132 -1.0238,0.66171 -0.2861,0.22085 -0.5531,0.1914 -0.8038,-0.0546 -0.5565,-0.48155 -0.4889,-1.04105 -0.2201,-1.6248 z"
       style="fill:#303135;fill-opacity:1;fill-rule:evenodd;stroke:none;stroke-width:0.883878" />
    <path
       id="path105"
       d="m 1205.5723,328.70197 c 0.267,0.045 0.5349,0.0624 0.8047,0.0546 -0.2959,0.34384 -0.581,0.56037 -0.8047,-0.0546 z"
       style="fill:#202329;fill-opacity:1;fill-rule:evenodd;stroke:none;stroke-width:0.883878" />
    <path
       id="path107"
       d="m 1163.9146,207.73441 c -0.349,0.84012 -1.2394,1.02373 -1.942,1.39183 -7.0747,3.70171 -14.1727,7.361 -21.243,11.07051 -0.8388,0.43998 -1.5027,0.52919 -2.3822,0.0685 -7.7042,-4.03344 -15.4346,-8.0227 -23.147,-12.04228 -0.1976,-0.10307 -0.2824,-0.40534 -0.414,-0.60627 -0.01,-0.51534 0.3896,-0.7076 0.7685,-0.89728 7.3985,-3.70259 14.8041,-7.39219 22.1918,-11.11295 0.9363,-0.47116 1.7563,-0.79768 2.8161,-0.24944 7.5979,3.92778 15.2173,7.8157 22.8205,11.73222 0.2283,0.11692 0.3518,0.42005 0.5313,0.64524 z"
       style="fill:#ff5c23;fill-opacity:1;fill-rule:evenodd;stroke:none;stroke-width:0.883878" />
  </g>
</svg>
